# xmcd
#
# Track frame offsets: 
#        150
#        13200
#        26259
#        39785
#        55381
#        65411
#        76581
#        86202
#        110144
#        129838
#        143412
#        156805
#        175583
#        193202
#        211163
#        226722
#        246302
#        260674
#        271827
#        289363
#        306130
#        320298
#        332739
#        344688
#
# Disc length: 4771 seconds
#
# Revision: 1
# Processed by: cddbd v1.5.2PL0 Copyright (c) Steve Scherf et al.
# Submitted via: ExactAudioCopy v1.1
#
DISCID=5012a118
DTITLE=Lorraine Ellison - Sister Love - Disc 2
DYEAR=2006
DGENRE=R&B
TTITLE0=Haven't I Been Good To You (mono)
TTITLE1=In My Tomorrow (mono)
TTITLE2=You've Really Got A Hold On Me
TTITLE3=Time Is On My Side (mono)
TTITLE4=Woman, Loose My Man
TTITLE5=Let Me Love You
TTITLE6=Doin' Me Dirty
TTITLE7=He Ain't Heavy, He's My Brother (mono)
TTITLE8=Caravan (mono)
TTITLE9=I'll Be Home (mono)
TTITLE10=Dear John (mono)
TTITLE11=You've Got A Friend
TTITLE12=Walk Around Heaven
TTITLE13=Country Woman's Prayer
TTITLE14=Do Better Than You're Doin'
TTITLE15=If Only I Could See Him
TTITLE16=No Relief
TTITLE17=I'll Fly Away
TTITLE18=The Road I Took To You
TTITLE19=Stormy Weather
TTITLE20=Many Rivers To Cross
TTITLE21=When You Count The Ones You Love
TTITLE22=Sister Love
TTITLE23=Sweet Years
EXTD=
EXTT0=
EXTT1=
EXTT2=
EXTT3=
EXTT4=
EXTT5=
EXTT6=
EXTT7=
EXTT8=
EXTT9=
EXTT10=
EXTT11=
EXTT12=
EXTT13=
EXTT14=
EXTT15=
EXTT16=
EXTT17=
EXTT18=
EXTT19=
EXTT20=
EXTT21=
EXTT22=
EXTT23=
PLAYORDER=
